<svg id="a00131e2-b39e-41fd-90d9-55fb8932c11d" data-name="Layer 1" xmlns="http://www.w3.org/2000/svg" viewBox="0 0 98.28 112.28"><title>iconOne</title><rect x="14" y="54" width="20" height="20" transform="translate(-48.08 27.86) rotate(-45)" fill="#006837"/><rect x="28" y="40" width="20" height="20" transform="translate(-34.08 33.66) rotate(-45)" fill="#00a99d"/><rect x="28" y="68" width="20" height="20" transform="translate(-53.88 41.86) rotate(-45)" fill="#00a99d"/><rect x="42" y="82" width="20" height="20" transform="translate(-59.68 55.86) rotate(-45)" fill="#8cc63f"/><rect x="42" y="26" width="20" height="20" transform="translate(-20.08 39.46) rotate(-45)" fill="#22b573"/><rect x="56" y="12" width="20" height="20" transform="translate(-6.08 45.25) rotate(-45)" fill="#d9e021"/><rect x="56" y="96" width="20" height="20" transform="translate(-65.48 69.86) rotate(-45)" fill="#d9e021"/><rect x="42" y="54" width="20" height="20" transform="translate(-39.88 47.66) rotate(-45)" fill="#009245"/><rect x="56" y="40" width="20" height="20" transform="translate(-25.88 53.46) rotate(-45)" fill="#006837"/><rect x="56" y="68" width="20" height="20" transform="translate(-45.68 61.66) rotate(-45)" fill="#006837"/><rect x="70" y="54" width="20" height="20" transform="translate(-31.68 67.46) rotate(-45)" fill="#39b54a"/><rect x="84" y="40" width="20" height="20" transform="translate(-17.68 73.25) rotate(-45)" fill="#ed1e79"/><rect x="84" y="68" width="20" height="20" transform="translate(-37.48 81.46) rotate(-45)" fill="#9e005d"/></svg>